<svg width="128" height="16" viewBox="0 0 128 16" fill="none" xmlns="http://www.w3.org/2000/svg">
<path d="M115.287 15.3C113.789 15.3 112.575 14.086 112.575 12.5885C112.575 11.091 113.789 9.877 115.287 9.877H117.514C120.241 9.877 122.452 7.66596 122.452 4.9385V2.7115C122.452 1.21398 123.666 0 125.164 0C126.661 0 127.875 1.21398 127.875 2.7115V7.65C127.875 11.875 124.45 15.3 120.225 15.3H115.287ZM114.802 4.454C113.572 4.454 112.575 3.45694 112.575 2.227C112.575 0.997062 113.572 0 114.802 0H119.749C120.979 0 121.976 0.997062 121.976 2.227C121.976 3.45694 120.979 4.454 119.749 4.454H114.802Z" fill="#FDFFFC"/>
<path d="M101.988 15.3C100.895 15.3 100.008 14.4133 100.008 13.3195C100.008 12.2257 100.895 11.339 101.988 11.339H106.714C106.813 11.339 106.893 11.2591 106.893 11.1605C106.893 11.0619 106.813 10.982 106.714 10.982H101.997C101.095 10.982 100.365 10.2513 100.365 9.34999C100.365 8.44866 101.095 7.71799 101.997 7.71799H106.714C106.813 7.71799 106.893 7.63807 106.893 7.53949C106.893 7.4409 106.813 7.36099 106.714 7.36099H101.64C100.738 7.36099 100.008 6.63031 100.008 5.72899C100.008 4.82766 100.738 4.09698 101.64 4.09698H105.609C108.703 4.09698 111.211 6.60486 111.211 9.69849C111.211 12.7921 108.703 15.3 105.609 15.3H101.988Z" fill="#FDFFFC"/>
<path d="M86.0513 15.3C84.5538 15.3 83.3398 14.086 83.3398 12.5885C83.3398 11.091 84.5538 9.877 86.0513 9.877H88.2783C91.0058 9.877 93.2168 7.66596 93.2168 4.9385V2.7115C93.2168 1.21398 94.4308 0 95.9283 0C97.4259 0 98.6398 1.21398 98.6398 2.7115V7.65C98.6398 11.875 95.2148 15.3 90.9898 15.3H86.0513ZM85.5668 4.454C84.3369 4.454 83.3398 3.45694 83.3398 2.227C83.3398 0.997062 84.3369 0 85.5668 0H90.5138C91.7438 0 92.7408 0.997062 92.7408 2.227C92.7408 3.45694 91.7438 4.454 90.5138 4.454H85.5668ZM85.5668 9.401C84.3369 9.401 83.3398 8.40394 83.3398 7.174C83.3398 5.94406 84.3369 4.947 85.5668 4.947H90.5138C91.7438 4.947 92.7408 5.94406 92.7408 7.174C92.7408 8.40394 91.7438 9.401 90.5138 9.401H85.5668Z" fill="#FDFFFC"/>
<path d="M69.3749 10.353C67.8821 10.353 66.6719 9.14285 66.6719 7.65002C66.6719 6.1572 67.882 4.94702 69.3749 4.94702H79.2689C80.7617 4.94702 81.9719 6.1572 81.9719 7.65002C81.9719 9.14285 80.7617 10.353 79.2689 10.353H69.3749Z" fill="#FDFFFC"/>
<path d="M53.8265 8.126C51.79 8.126 50.2081 6.35161 50.4409 4.32843L50.5907 3.02659C50.7891 1.30183 52.2493 0 53.9855 0H56.9425C57.4118 0 57.7762 0.409295 57.7219 0.8755C57.6676 1.34171 58.032 1.751 58.5013 1.751H62.5924C64.0899 1.751 65.3039 2.96498 65.3039 4.4625V6.58982C65.3039 6.91245 65.0424 7.174 64.7197 7.174C64.4229 7.174 64.1733 7.39655 64.1394 7.69141L63.5625 12.7048C63.3924 14.1837 62.1403 15.3 60.6516 15.3C58.9006 15.3 57.5404 13.7744 57.7406 12.0349L58.2168 7.89601C58.2611 7.51135 57.9603 7.174 57.5731 7.174H57.4696C57.1974 7.174 56.9689 7.37929 56.9399 7.65C56.9109 7.92071 56.6824 8.126 56.4102 8.126H53.8265Z" fill="#FDFFFC"/>
<path d="M36.5234 5.423C35.0259 5.423 33.8119 4.20902 33.8119 2.7115C33.8119 1.21398 35.0259 0 36.5234 0H45.4314C46.929 0 48.1429 1.21398 48.1429 2.7115C48.1429 4.20902 46.929 5.423 45.4314 5.423H36.5234ZM37.1609 15.3C35.0485 15.3 33.3359 13.5875 33.3359 11.475C33.3359 9.36251 35.0484 7.65 37.1609 7.65H44.8109C46.9234 7.65 48.6359 9.36251 48.6359 11.475C48.6359 13.5875 46.9234 15.3 44.8109 15.3H37.1609Z" fill="#FDFFFC"/>
<path d="M17.6625 9.401C17.1132 9.401 16.668 8.95575 16.668 8.4065V5.9415C16.668 5.39225 17.1132 4.947 17.6625 4.947H18.4105C18.5466 4.947 18.657 4.83664 18.657 4.7005C18.657 4.56436 18.5466 4.454 18.4105 4.454H17.6625C17.1132 4.454 16.668 4.00875 16.668 3.4595V2.227C16.668 0.997062 17.665 0 18.895 0H29.741C30.9709 0 31.968 0.997062 31.968 2.227C31.968 3.45694 30.9709 4.454 29.741 4.454H24.8025C24.6663 4.454 24.556 4.56436 24.556 4.7005C24.556 4.83664 24.6663 4.947 24.8025 4.947H29.741C30.9709 4.947 31.968 5.94406 31.968 7.174C31.968 8.40394 30.9709 9.401 29.741 9.401H24.794C24.6625 9.401 24.556 9.50756 24.556 9.639C24.556 9.77044 24.6625 9.877 24.794 9.877H29.2565C30.754 9.877 31.968 11.091 31.968 12.5885C31.968 14.086 30.754 15.3 29.2565 15.3H21.6065C19.9775 15.3 18.657 13.9795 18.657 12.3505V10.3955C18.657 9.84625 18.2117 9.401 17.6625 9.401Z" fill="#FDFFFC"/>
<path d="M3.28436 8.126C1.53338 8.126 0.172132 6.60231 0.368691 4.8624L0.510526 3.6069C0.742611 1.55252 2.4804 0 4.54784 0H7.29264C11.5579 0 14.8704 3.71734 14.3808 7.95442L13.8311 12.7115C13.6606 14.1868 12.4114 15.3 10.9263 15.3C9.18014 15.3 7.8232 13.7797 8.02084 12.0448L8.55869 7.32373C8.64519 6.56441 8.04496 5.899 7.28073 5.899C6.64032 5.899 6.09564 6.37682 6.018 7.0125C5.94036 7.64818 5.40063 8.126 4.76023 8.126H3.28436Z" fill="#FDFFFC"/>
</svg>
